<?xml version="1.0" encoding="UTF-8"?>
<svg xmlns="http://www.w3.org/2000/svg" xmlns:xlink="http://www.w3.org/1999/xlink" width="72px" height="72px" viewBox="0 0 72 72" version="1.1">
<g id="surface1">
<path style=" stroke:none;fill-rule:nonzero;fill:rgb(51.372549%,70.196078%,82.745098%);fill-opacity:1;" d="M 64.042969 21.28125 L 40.546875 21.28125 C 53.621094 14.738281 54.664062 10.566406 54.191406 8.292969 C 53.050781 4.5 48.789062 1.65625 44.714844 3.171875 C 39.410156 5.164062 37.988281 13.03125 36.570312 18.71875 C 34.671875 12.9375 32.96875 5.636719 28.800781 1.941406 C 27.570312 0.898438 25.863281 -0.238281 23.304688 0.0429688 C 19.515625 0.421875 14.019531 5.164062 16.199219 10.472656 C 18.378906 15.59375 25.390625 18.816406 30.03125 21.375 L 8.90625 21.375 C 7.390625 21.375 6.15625 22.609375 6.15625 24.125 L 6.15625 34.835938 C 6.15625 36.355469 7.390625 37.585938 8.90625 37.585938 L 9.191406 37.585938 L 9.191406 72 L 63.949219 72 L 63.949219 37.492188 L 64.042969 37.492188 C 65.558594 37.492188 66.789062 36.257812 66.789062 34.742188 L 66.789062 24.03125 C 66.789062 22.511719 65.558594 21.28125 64.042969 21.28125 Z M 46.328125 5.542969 C 48.316406 5.257812 51.0625 6.773438 51.347656 8.578125 C 51.726562 11.230469 48.125 13.601562 46.515625 14.644531 C 44.148438 16.253906 41.875 17.109375 39.601562 18.53125 C 40.453125 15.023438 41.96875 6.207031 46.328125 5.542969 Z M 24.632812 15.023438 C 22.546875 13.601562 18.472656 10.851562 18.570312 7.628906 C 18.664062 4.214844 23.96875 1.371094 26.90625 3.929688 C 30.601562 7.15625 32.304688 14.453125 33.632812 19.667969 C 30.601562 18.246094 27.664062 17.015625 24.632812 15.023438 Z M 30.316406 69.15625 L 11.9375 69.15625 L 11.9375 37.492188 L 30.316406 37.492188 Z M 30.316406 34.550781 L 9 34.550781 L 9 24.125 L 30.316406 24.125 Z M 39.980469 34.550781 L 39.980469 69.15625 L 33.15625 69.15625 L 33.15625 24.21875 L 39.980469 24.21875 Z M 61.105469 69.15625 L 42.726562 69.15625 L 42.726562 37.492188 L 61.105469 37.492188 Z M 63.851562 34.550781 L 42.726562 34.550781 L 42.726562 24.125 L 63.851562 24.125 Z M 63.851562 34.550781 "/>
</g>
</svg>
